<svg xmlns="http://www.w3.org/2000/svg" width="21.056" height="21.057" viewBox="0 0 21.056 21.057">
  <g id="flaticon1573550879-svg" transform="translate(-0.025 0)">
    <path id="Path_41" data-name="Path 41" d="M20.3.051,18.076,1.065a1.34,1.34,0,0,0-.386.268L14.058,4.966l-12.5-1.5a.743.743,0,0,0-.615.213l-.7.7A.744.744,0,0,0,.465,5.581L9.426,9.6,6.853,12.171H2.36a.752.752,0,0,0-.527.217l-.375.378a.743.743,0,0,0,.233,1.21L5.481,15.6l1.625,3.791a.744.744,0,0,0,1.21.233l.378-.378a.742.742,0,0,0,.217-.527V14.226l2.573-2.573L15.5,20.617a.744.744,0,0,0,1.205.222l.7-.7a.745.745,0,0,0,.213-.615l-1.5-12.5L19.746,3.39A1.311,1.311,0,0,0,20.014,3L21.028.775A.546.546,0,0,0,20.3.051Z" transform="translate(0 0)" fill="#eec66e"/>
  </g>
</svg>
