<svg id="flaticon1573566511-svg" xmlns="http://www.w3.org/2000/svg" width="23.058" height="23.059" viewBox="0 0 23.058 23.059">
  <g id="Group_379" data-name="Group 379">
    <path id="Path_48" data-name="Path 48" d="M11.529,23.059a11.53,11.53,0,1,1,11.529-11.53A11.543,11.543,0,0,1,11.529,23.059Zm0-21.742A10.212,10.212,0,1,0,21.74,11.529,10.224,10.224,0,0,0,11.529,1.317Z" fill="#272727"/>
  </g>
  <g id="Group_380" data-name="Group 380" transform="translate(6.324 10.87)">
    <path id="Path_49" data-name="Path 49" d="M18.269,15.959H9.177a.659.659,0,1,1,0-1.318h9.092a.659.659,0,0,1,0,1.318Z" transform="translate(-8.518 -14.641)" fill="#272727"/>
  </g>
  <g id="Group_381" data-name="Group 381" transform="translate(10.87 6.324)">
    <path id="Path_50" data-name="Path 50" d="M15.3,18.928a.659.659,0,0,1-.659-.659V9.177a.659.659,0,1,1,1.318,0v9.092A.657.657,0,0,1,15.3,18.928Z" transform="translate(-14.641 -8.518)" fill="#272727"/>
  </g>
</svg>
