<svg id="flaticon1573546752-svg" xmlns="http://www.w3.org/2000/svg" width="43.852" height="43.852" viewBox="0 0 43.852 43.852">
  <g id="Group_335" data-name="Group 335">
    <path id="Path_25" data-name="Path 25" d="M22.252,11.269A10.984,10.984,0,1,0,33.236,22.253,11,11,0,0,0,22.252,11.269Z" transform="translate(-0.326 -0.326)" fill="#fff"/>
    <g id="Group_334" data-name="Group 334">
      <g id="Group_326" data-name="Group 326" transform="translate(19.783)">
        <path id="Path_26" data-name="Path 26" d="M22.516,7.714a2.143,2.143,0,0,1-2.143-2.142V2.143a2.143,2.143,0,0,1,4.286,0V5.572A2.143,2.143,0,0,1,22.516,7.714Z" transform="translate(-20.373)" fill="#fff"/>
      </g>
      <g id="Group_327" data-name="Group 327" transform="translate(19.783 36.137)">
        <path id="Path_27" data-name="Path 27" d="M22.516,37.215a2.143,2.143,0,0,0-2.143,2.143v3.428a2.143,2.143,0,1,0,4.286,0V39.358A2.144,2.144,0,0,0,22.516,37.215Z" transform="translate(-20.373 -37.215)" fill="#fff"/>
      </g>
      <g id="Group_328" data-name="Group 328" transform="translate(31.348 5.794)">
        <path id="Path_28" data-name="Path 28" d="M32.909,12.05a2.144,2.144,0,0,1,0-3.031l2.425-2.425a2.143,2.143,0,1,1,3.031,3.031L35.94,12.05A2.143,2.143,0,0,1,32.909,12.05Z" transform="translate(-32.282 -5.967)" fill="#fff"/>
      </g>
      <g id="Group_329" data-name="Group 329" transform="translate(5.794 31.348)">
        <path id="Path_29" data-name="Path 29" d="M12.05,32.911a2.141,2.141,0,0,0-3.031,0L6.594,35.335a2.143,2.143,0,0,0,3.031,3.031L12.05,35.94A2.14,2.14,0,0,0,12.05,32.911Z" transform="translate(-5.967 -32.283)" fill="#fff"/>
      </g>
      <g id="Group_330" data-name="Group 330" transform="translate(36.137 19.783)">
        <path id="Path_30" data-name="Path 30" d="M37.215,22.516a2.143,2.143,0,0,1,2.143-2.143h3.429a2.143,2.143,0,1,1,0,4.285H39.358A2.142,2.142,0,0,1,37.215,22.516Z" transform="translate(-37.215 -20.373)" fill="#fff"/>
      </g>
      <g id="Group_331" data-name="Group 331" transform="translate(0 19.783)">
        <path id="Path_31" data-name="Path 31" d="M7.714,22.516a2.143,2.143,0,0,0-2.143-2.143H2.143a2.143,2.143,0,1,0,0,4.285H5.572A2.142,2.142,0,0,0,7.714,22.516Z" transform="translate(0 -20.373)" fill="#fff"/>
      </g>
      <g id="Group_332" data-name="Group 332" transform="translate(31.347 31.349)">
        <path id="Path_32" data-name="Path 32" d="M32.909,32.911a2.144,2.144,0,0,1,3.031,0l2.425,2.425a2.143,2.143,0,1,1-3.031,3.03l-2.425-2.425A2.142,2.142,0,0,1,32.909,32.911Z" transform="translate(-32.282 -32.284)" fill="#fff"/>
      </g>
      <g id="Group_333" data-name="Group 333" transform="translate(5.794 5.795)">
        <path id="Path_33" data-name="Path 33" d="M12.05,12.05a2.143,2.143,0,0,0,0-3.031L9.625,6.6a2.143,2.143,0,0,0-3.031,3.03L9.019,12.05A2.141,2.141,0,0,0,12.05,12.05Z" transform="translate(-5.967 -5.967)" fill="#fff"/>
      </g>
    </g>
  </g>
</svg>
