<svg id="flaticon1573204718-svg" xmlns="http://www.w3.org/2000/svg" width="40.454" height="25.284" viewBox="0 0 40.454 25.284">
  <g id="Group_4" data-name="Group 4">
    <g id="Group_3" data-name="Group 3" transform="translate(0 0)">
      <path id="Path_4" data-name="Path 4" d="M.843,96H39.611a.843.843,0,0,1,0,1.686H.843A.843.843,0,1,1,.843,96Z" transform="translate(0 -96)" fill="#fcdb83"/>
    </g>
  </g>
  <g id="Group_6" data-name="Group 6" transform="translate(0 11.799)">
    <g id="Group_5" data-name="Group 5" transform="translate(0 0)">
      <path id="Path_5" data-name="Path 5" d="M.843,245.333H39.611a.843.843,0,1,1,0,1.686H.843a.843.843,0,1,1,0-1.686Z" transform="translate(0 -245.333)" fill="#fcdb83"/>
    </g>
  </g>
  <g id="Group_8" data-name="Group 8" transform="translate(17.847 23.598)">
    <g id="Group_7" data-name="Group 7">
      <path id="Path_6" data-name="Path 6" d="M.843,394.667H21.764a.843.843,0,1,1,0,1.686H.843a.843.843,0,1,1,0-1.686Z" transform="translate(0 -394.667)" fill="#fcdb83"/>
    </g>
  </g>
</svg>
