<svg id="flaticon1573282593-svg" xmlns="http://www.w3.org/2000/svg" width="25.707" height="23.758" viewBox="0 0 25.707 23.758">
  <g id="Group_25" data-name="Group 25">
    <path id="Path_14" data-name="Path 14" d="M7.308,34.558H31.2a.9.9,0,0,0,.908-.908V13.391a.9.9,0,0,0-.908-.908H26.7v-.775a.908.908,0,0,0-1.816,0v.775H13.773v-.775a.908.908,0,1,0-1.816,0v.775H7.308a.9.9,0,0,0-.908.908V33.673a.908.908,0,0,0,.908.886ZM8.216,14.3h3.742v.487a.908.908,0,1,0,1.816,0V14.3H24.888v.487a.908.908,0,1,0,1.816,0V14.3h3.609v2.347H8.216V14.3Zm0,4.163H30.291v14.3H8.216Z" transform="translate(-6.4 -10.8)" fill="#eec66e"/>
    <path id="Path_15" data-name="Path 15" d="M44.872,64.2H31.808a.908.908,0,1,0,0,1.816H44.872a.908.908,0,0,0,0-1.816Z" transform="translate(-25.475 -52.376)" fill="#eec66e"/>
    <path id="Path_16" data-name="Path 16" d="M38.34,84H31.808a.908.908,0,1,0,0,1.816H38.34a.908.908,0,1,0,0-1.816Z" transform="translate(-25.475 -67.792)" fill="#eec66e"/>
  </g>
</svg>
