<svg xmlns="http://www.w3.org/2000/svg" width="30" height="30" viewBox="0 0 30 30">
  <g id="flaticon1573465730-svg" transform="translate(-0.003 0)">
    <path id="Path_19" data-name="Path 19" d="M13.568,15,.289,28.376a.955.955,0,0,0,0,1.345.939.939,0,0,0,1.335,0L15,16.248,28.382,29.721a.939.939,0,0,0,1.335,0,.955.955,0,0,0,0-1.345L16.438,15,29.726,1.623a.955.955,0,0,0,0-1.345.94.94,0,0,0-1.335,0L15,13.76,1.614.278a.94.94,0,0,0-1.335,0,.955.955,0,0,0,0,1.345Z" transform="translate(0 0)" fill="#fff"/>
  </g>
</svg>
