<svg xmlns="http://www.w3.org/2000/svg" width="38" height="38" viewBox="0 0 38 38">
  <g id="Group_364" data-name="Group 364" transform="translate(-1744.047 -943)">
    <rect id="Rectangle_111" data-name="Rectangle 111" width="38" height="38" rx="19" transform="translate(1744.047 943)" fill="#6c6c6c" opacity="0.8"/>
    <g id="flaticon1573465730-svg" transform="translate(1756.628 955.628)">
      <path id="Path_19" data-name="Path 19" d="M5.957,6.585.128,12.455a.419.419,0,0,0,0,.59.412.412,0,0,0,.586,0L6.587,7.132l5.873,5.914a.412.412,0,0,0,.586,0,.419.419,0,0,0,0-.59L7.217,6.585,13.049.712a.419.419,0,0,0,0-.59.412.412,0,0,0-.586,0L6.587,6.039.71.122a.413.413,0,0,0-.586,0,.419.419,0,0,0,0,.59Z" transform="translate(-0.003 0.001)" fill="#fff"/>
    </g>
  </g>
</svg>
