<svg xmlns="http://www.w3.org/2000/svg" width="30" height="30" viewBox="0 0 30 30">
  <g id="Group_337" data-name="Group 337" transform="translate(-277 -1414)">
    <g id="flaticon1573549975-svg" transform="translate(281.994 1419)">
      <g id="Group_336" data-name="Group 336" transform="translate(0.006)">
        <path id="Path_34" data-name="Path 34" d="M15.66,57.782a1.443,1.443,0,0,0-2.181,0c-.51.506-1.02,1.011-1.521,1.525a.3.3,0,0,1-.42.077c-.33-.18-.681-.326-1-.523a15.818,15.818,0,0,1-3.814-3.471A9.035,9.035,0,0,1,5.36,53.2a.314.314,0,0,1,.077-.4c.51-.493,1.007-1,1.508-1.5a1.448,1.448,0,0,0,0-2.232c-.4-.4-.8-.8-1.2-1.2s-.818-.827-1.234-1.234a1.452,1.452,0,0,0-2.181,0c-.514.506-1.007,1.024-1.53,1.521a2.483,2.483,0,0,0-.78,1.675,7.1,7.1,0,0,0,.548,3.055,18.565,18.565,0,0,0,3.3,5.489,20.391,20.391,0,0,0,6.753,5.283,9.767,9.767,0,0,0,3.741,1.088,2.741,2.741,0,0,0,2.352-.9c.437-.488.93-.934,1.393-1.4a1.458,1.458,0,0,0,.009-2.22Q16.89,59,15.66,57.782Z" transform="translate(-0.006 -44.161)" fill="#eec66e"/>
        <path id="Path_35" data-name="Path 35" d="M242.5,102.093l1.581-.27a7.1,7.1,0,0,0-6-5.823l-.223,1.59a5.485,5.485,0,0,1,4.645,4.5Z" transform="translate(-227.662 -91.887)" fill="#eec66e"/>
        <path id="Path_36" data-name="Path 36" d="M249.661,3.334A11.659,11.659,0,0,0,242.977,0l-.223,1.59a10.173,10.173,0,0,1,8.608,8.343l1.581-.27A11.744,11.744,0,0,0,249.661,3.334Z" transform="translate(-232.353)" fill="#eec66e"/>
      </g>
    </g>
    <rect id="Rectangle_106" data-name="Rectangle 106" width="30" height="30" transform="translate(277 1414)" fill="none"/>
  </g>
</svg>
