<svg xmlns="http://www.w3.org/2000/svg" width="30" height="30" viewBox="0 0 30 30">
  <g id="Group_342" data-name="Group 342" transform="translate(-277 -1414)">
    <rect id="Rectangle_106" data-name="Rectangle 106" width="30" height="30" transform="translate(277 1414)" fill="none"/>
    <g id="flaticon1573551214-svg" transform="translate(202.302 1416)">
      <g id="Group_346" data-name="Group 346" transform="translate(81.698)">
        <path id="Path_45" data-name="Path 45" d="M96.842,7.426l-.433-.109v-3.2c0-.681-.559-1.306-1.549-1.56a14.693,14.693,0,0,0-3.151-.548,1.145,1.145,0,1,0-1.562-.056H88.98a1.146,1.146,0,1,0-1.562.056,14.691,14.691,0,0,0-3.151.548c-.99.254-1.549.879-1.549,1.56v3.2l-.432.109a.783.783,0,0,0-.587.758v9.685a.783.783,0,0,0,.783.783H96.646a.783.783,0,0,0,.783-.783V8.184A.783.783,0,0,0,96.842,7.426ZM84.52,4.358a21.038,21.038,0,0,1,3.974-.592v2.5a21.646,21.646,0,0,0-3.974.575Zm5.07,6.988h-.052a1.677,1.677,0,0,1,0-3.354h.052a1.677,1.677,0,0,1,0,3.354ZM94.607,6.84a21.639,21.639,0,0,0-3.974-.575v-2.5a21.038,21.038,0,0,1,3.974.592V6.84Z" transform="translate(-81.698)" fill="#eec66e"/>
        <path id="Path_46" data-name="Path 46" d="M174.695,350.645h-3.464l-.454,1.276q1.081.092,2.16.093h.052q1.078,0,2.16-.093Z" transform="translate(-165.098 -328.289)" fill="#eec66e"/>
        <path id="Path_47" data-name="Path 47" d="M108.038,308.8v-1.977a.706.706,0,0,0-.706-.706H94.564a.706.706,0,0,0-.706.706V308.8a.706.706,0,0,0,.528.683q.3.077.6.147l-.857,1.942a.838.838,0,1,0,1.534.677l1.006-2.28q.363.061.727.111l.718-2.018a.67.67,0,0,1,.632-.446h4.411a.671.671,0,0,1,.632.446l.718,2.018q.364-.051.727-.111l1.006,2.28a.838.838,0,0,0,1.534-.677l-.857-1.942q.3-.07.6-.147A.706.706,0,0,0,108.038,308.8Z" transform="translate(-93.083 -286.601)" fill="#eec66e"/>
      </g>
    </g>
  </g>
</svg>
