<svg xmlns="http://www.w3.org/2000/svg" width="30" height="30" viewBox="0 0 30 30">
  <g id="Group_338" data-name="Group 338" transform="translate(-277 -1414)">
    <rect id="Rectangle_106" data-name="Rectangle 106" width="30" height="30" transform="translate(277 1414)" fill="none"/>
    <g id="flaticon1573550113-svg" transform="translate(282 1366.18)">
      <g id="Group_338-2" data-name="Group 338" transform="translate(0 54.82)">
        <path id="Path_37" data-name="Path 37" d="M1.932,59.694q.382.269,2.3,1.6t2.942,2.049q.112.079.477.343t.606.427q.241.163.584.365a3.388,3.388,0,0,0,.646.3,1.78,1.78,0,0,0,.561.1h.023a1.781,1.781,0,0,0,.562-.1,3.391,3.391,0,0,0,.646-.3q.342-.2.584-.365t.606-.427q.365-.264.477-.343l5.256-3.65a5.335,5.335,0,0,0,1.37-1.381,2.966,2.966,0,0,0,.55-1.7,1.812,1.812,0,0,0-1.8-1.8H1.8A1.6,1.6,0,0,0,.466,55.4,2.267,2.267,0,0,0,0,56.864,2.623,2.623,0,0,0,.618,58.4,5.574,5.574,0,0,0,1.932,59.694Z" transform="translate(0 -54.82)" fill="#eec66e"/>
        <path id="Path_38" data-name="Path 38" d="M19,185.414q-3.683,2.493-5.592,3.874-.64.471-1.039.736a6.408,6.408,0,0,1-1.061.539,3.231,3.231,0,0,1-1.235.275h-.023a3.232,3.232,0,0,1-1.235-.275,6.412,6.412,0,0,1-1.061-.539q-.4-.264-1.039-.736-1.516-1.112-5.581-3.874A5.948,5.948,0,0,1,0,184.437v8.916a1.73,1.73,0,0,0,.528,1.269,1.73,1.73,0,0,0,1.269.528h16.53a1.8,1.8,0,0,0,1.8-1.8v-8.916A6.193,6.193,0,0,1,19,185.414Z" transform="translate(0 -179.339)" fill="#eec66e"/>
      </g>
    </g>
  </g>
</svg>
