<svg xmlns="http://www.w3.org/2000/svg" width="21.585" height="17.531" viewBox="0 0 21.585 17.531">
  <path id="twitter" d="M19.366,52.451c.014.192.014.384.014.575A12.5,12.5,0,0,1,6.793,65.613,12.5,12.5,0,0,1,0,63.627a9.152,9.152,0,0,0,1.068.055,8.86,8.86,0,0,0,5.492-1.89,4.432,4.432,0,0,1-4.136-3.068,5.579,5.579,0,0,0,.836.068,4.679,4.679,0,0,0,1.164-.151A4.424,4.424,0,0,1,.877,54.3v-.055a4.455,4.455,0,0,0,2,.562,4.43,4.43,0,0,1-1.37-5.917,12.575,12.575,0,0,0,9.122,4.629,4.994,4.994,0,0,1-.11-1.013,4.428,4.428,0,0,1,7.656-3.027,8.71,8.71,0,0,0,2.808-1.068,4.412,4.412,0,0,1-1.945,2.438,8.869,8.869,0,0,0,2.547-.685,9.51,9.51,0,0,1-2.219,2.287Z" transform="translate(0 -48.082)" fill="#595959"/>
</svg>
